<svg xmlns="http://www.w3.org/2000/svg" xmlns:xlink="http://www.w3.org/1999/xlink" width="500" zoomAndPan="magnify" viewBox="0 0 375 374.999991" height="500" preserveAspectRatio="xMidYMid meet" version="1.0"><defs><g/></defs><g fill="#ffffff" fill-opacity="1"><g transform="translate(88.347656, 178.711227)"><g><path d="M 21.300781 0 L 26.542969 0 L 26.542969 -5.441406 L 21.570312 -5.441406 C 16.933594 -5.441406 14.785156 -7.796875 14.785156 -12.835938 L 14.785156 -29.703125 L 26.074219 -29.703125 L 26.074219 -34.875 L 14.785156 -34.875 L 14.785156 -43.546875 L 10.414062 -43.546875 L 9.878906 -38.839844 C 9.476562 -35.683594 8.535156 -34.875 5.308594 -34.875 L 1.8125 -34.875 L 1.8125 -29.703125 L 9.140625 -29.703125 L 9.140625 -12.566406 C 9.140625 -4.570312 13.574219 0 21.300781 0 Z M 21.300781 0 "/></g></g></g><g fill="#ffffff" fill-opacity="1"><g transform="translate(118.182344, 178.711227)"><g><path d="M 6.25 0 L 11.894531 0 L 11.894531 -16.195312 C 11.894531 -26.140625 16.867188 -29.636719 23.183594 -29.636719 L 26.609375 -29.636719 L 26.609375 -34.875 L 23.453125 -34.875 C 17.539062 -34.875 14.042969 -32.996094 11.558594 -28.828125 L 10.886719 -34.875 L 6.25 -34.875 Z M 6.25 0 "/></g></g></g><g fill="#ffffff" fill-opacity="1"><g transform="translate(147.479469, 178.711227)"><g><path d="M 21.972656 0.875 C 32.792969 0.875 40.453125 -6.789062 40.453125 -17.472656 C 40.453125 -28.15625 32.792969 -35.75 21.972656 -35.75 C 11.15625 -35.75 3.496094 -28.15625 3.496094 -17.472656 C 3.496094 -6.789062 11.15625 0.875 21.972656 0.875 Z M 9.140625 -17.472656 C 9.140625 -25.066406 14.449219 -30.375 21.972656 -30.375 C 29.5 -30.375 34.808594 -25.066406 34.808594 -17.472656 C 34.808594 -9.8125 29.5 -4.570312 21.972656 -4.570312 C 14.449219 -4.570312 9.140625 -9.8125 9.140625 -17.472656 Z M 9.140625 -17.472656 "/></g></g></g><g fill="#ffffff" fill-opacity="1"><g transform="translate(191.425157, 178.711227)"><g><path d="M 6.25 0 L 11.894531 0 L 11.894531 -34.875 L 6.25 -34.875 Z M 4.503906 -45.023438 C 4.503906 -42.539062 6.316406 -40.65625 9.070312 -40.65625 C 11.828125 -40.65625 13.574219 -42.539062 13.574219 -45.023438 C 13.574219 -47.578125 11.828125 -49.460938 9.070312 -49.460938 C 6.316406 -49.460938 4.503906 -47.578125 4.503906 -45.023438 Z M 4.503906 -45.023438 "/></g></g></g><g fill="#ffffff" fill-opacity="1"><g transform="translate(209.567875, 178.711227)"><g><path d="M 8.601562 0.539062 C 11.355469 0.539062 13.171875 -1.34375 13.171875 -3.898438 C 13.171875 -6.453125 11.355469 -8.265625 8.601562 -8.265625 C 5.914062 -8.265625 4.097656 -6.453125 4.097656 -3.898438 C 4.097656 -1.34375 5.914062 0.539062 8.601562 0.539062 Z M 8.601562 0.539062 "/></g></g></g><g fill="#ffffff" fill-opacity="1"><g transform="translate(226.837054, 178.711227)"><g><path d="M 17.671875 0.539062 C 23.320312 0.539062 27.753906 -1.277344 30.910156 -4.839844 L 31.515625 0 L 36.152344 0 L 36.152344 -22.175781 C 36.152344 -30.238281 30.039062 -35.75 20.898438 -35.75 C 13.304688 -35.75 7.59375 -31.652344 6.046875 -24.929688 L 11.761719 -24.929688 C 12.902344 -28.359375 16.464844 -30.507812 20.964844 -30.507812 C 26.878906 -30.507812 30.507812 -27.214844 30.507812 -21.773438 L 30.507812 -20.496094 L 16.261719 -20.496094 C 9.003906 -20.496094 4.234375 -16.398438 4.234375 -10.078125 C 4.234375 -3.496094 9.273438 0.539062 17.671875 0.539062 Z M 9.878906 -10.148438 C 9.878906 -13.441406 12.566406 -15.523438 16.464844 -15.523438 L 30.574219 -15.523438 C 30.375 -9.070312 25.132812 -4.503906 17.875 -4.503906 C 12.96875 -4.503906 9.878906 -6.71875 9.878906 -10.148438 Z M 9.878906 -10.148438 "/></g></g></g><g fill="#ffffff" fill-opacity="1"><g transform="translate(268.4981, 178.711227)"><g><path d="M 6.25 0 L 11.894531 0 L 11.894531 -34.875 L 6.25 -34.875 Z M 4.503906 -45.023438 C 4.503906 -42.539062 6.316406 -40.65625 9.070312 -40.65625 C 11.828125 -40.65625 13.574219 -42.539062 13.574219 -45.023438 C 13.574219 -47.578125 11.828125 -49.460938 9.070312 -49.460938 C 6.316406 -49.460938 4.503906 -47.578125 4.503906 -45.023438 Z M 4.503906 -45.023438 "/></g></g></g></svg>